<svg width="72" height="71" viewBox="0 0 72 71" fill="none" xmlns="http://www.w3.org/2000/svg">
	<g clip-path="url(#clip0_7_18)">
		<rect x="5" y="11" width="63" height="45" fill="white" />
		<path fill-rule="evenodd" clip-rule="evenodd"
			d="M5.02386 15.3833C5.02386 15.0695 5.14853 14.7685 5.37045 14.5466C5.59237 14.3247 5.89335 14.2 6.20719 14.2H65.3739C65.6877 14.2 65.9887 14.3247 66.2106 14.5466C66.4325 14.7685 66.5572 15.0695 66.5572 15.3833V50.8833C66.5572 51.1972 66.4325 51.4982 66.2106 51.7201C65.9887 51.942 65.6877 52.0667 65.3739 52.0667H6.20719C5.89335 52.0667 5.59237 51.942 5.37045 51.7201C5.14853 51.4982 5.02386 51.1972 5.02386 50.8833V15.3833ZM6.20719 9.46667C2.94119 9.46667 0.290527 12.1173 0.290527 15.3833V50.8833C0.290527 54.1493 2.94119 56.8 6.20719 56.8H24.3027L23.1525 62.9486C23.0824 63.3242 23.0957 63.7107 23.1917 64.0806C23.2877 64.4504 23.4639 64.7946 23.7079 65.0887C23.9518 65.3828 24.2575 65.6196 24.6033 65.7823C24.9491 65.945 25.3264 66.0295 25.7085 66.03H45.8725C46.2546 66.0295 46.632 65.945 46.9777 65.7823C47.3235 65.6196 47.6292 65.3828 47.8732 65.0887C48.1171 64.7946 48.2934 64.4504 48.3893 64.0806C48.4853 63.7107 48.4987 63.3242 48.4285 62.9486L47.2783 56.8H65.3739C68.6399 56.8 71.2905 54.1493 71.2905 50.8833V15.3833C71.2905 12.1173 68.6399 9.46667 65.3739 9.46667H6.20719ZM42.9379 56.8H28.6432L27.706 61.77H43.8751L42.9379 56.8Z"
			fill="currentColor" />
	</g>
	<defs>
		<clipPath id="clip0_7_18">
			<rect width="71" height="71" fill="white" transform="translate(0.290527)" />
		</clipPath>
	</defs>
</svg>