<!-- generated with https://svgsprit.es/ -->
<svg width="0" height="0" class="hidden">
	<symbol fill="none" xmlns="http://www.w3.org/2000/svg" viewBox="0 0 72 71" id="desktop">
		<g clip-path="url(#clip0_7_18)">
			<rect x="5" y="11" width="63" height="45" fill="white"></rect>
			<path fill-rule="evenodd" clip-rule="evenodd"
				d="M5.02386 15.3833C5.02386 15.0695 5.14853 14.7685 5.37045 14.5466C5.59237 14.3247 5.89335 14.2 6.20719 14.2H65.3739C65.6877 14.2 65.9887 14.3247 66.2106 14.5466C66.4325 14.7685 66.5572 15.0695 66.5572 15.3833V50.8833C66.5572 51.1972 66.4325 51.4982 66.2106 51.7201C65.9887 51.942 65.6877 52.0667 65.3739 52.0667H6.20719C5.89335 52.0667 5.59237 51.942 5.37045 51.7201C5.14853 51.4982 5.02386 51.1972 5.02386 50.8833V15.3833ZM6.20719 9.46667C2.94119 9.46667 0.290527 12.1173 0.290527 15.3833V50.8833C0.290527 54.1493 2.94119 56.8 6.20719 56.8H24.3027L23.1525 62.9486C23.0824 63.3242 23.0957 63.7107 23.1917 64.0806C23.2877 64.4504 23.4639 64.7946 23.7079 65.0887C23.9518 65.3828 24.2575 65.6196 24.6033 65.7823C24.9491 65.945 25.3264 66.0295 25.7085 66.03H45.8725C46.2546 66.0295 46.632 65.945 46.9777 65.7823C47.3235 65.6196 47.6292 65.3828 47.8732 65.0887C48.1171 64.7946 48.2934 64.4504 48.3893 64.0806C48.4853 63.7107 48.4987 63.3242 48.4285 62.9486L47.2783 56.8H65.3739C68.6399 56.8 71.2905 54.1493 71.2905 50.8833V15.3833C71.2905 12.1173 68.6399 9.46667 65.3739 9.46667H6.20719ZM42.9379 56.8H28.6432L27.706 61.77H43.8751L42.9379 56.8Z"
				fill="currentColor"></path>
		</g>
		<defs>
			<clipPath id="clip0_7_18">
				<rect width="71" height="71" fill="white" transform="translate(0.290527)"></rect>
			</clipPath>
		</defs>
	</symbol>
	<symbol fill="none" xmlns="http://www.w3.org/2000/svg" viewBox="0 0 72 71" id="laptop">
		<g clip-path="url(#clip0_7_16)">
			<rect x="8" y="16" width="57" height="45" fill="white"></rect>
			<path fill-rule="evenodd" clip-rule="evenodd"
				d="M9.9464 20.1167C9.9464 19.8028 10.0711 19.5018 10.293 19.2799C10.5149 19.058 10.8159 18.9333 11.1297 18.9333H60.8297C61.1436 18.9333 61.4446 19.058 61.6665 19.2799C61.8884 19.5018 62.0131 19.8028 62.0131 20.1167V54.4333H9.9464V20.1167ZM11.1297 14.2C7.86374 14.2 5.21307 16.8507 5.21307 20.1167V56.8H0.479736V59.1667C0.479736 59.7943 0.729081 60.3963 1.17292 60.8402C1.61675 61.284 2.21872 61.5333 2.8464 61.5333H69.1131C69.7407 61.5333 70.3427 61.284 70.7866 60.8402C71.2304 60.3963 71.4797 59.7943 71.4797 59.1667V56.8H66.7464V20.1167C66.7464 16.8507 64.0957 14.2 60.8297 14.2H11.1297Z"
				fill="currentColor"></path>
		</g>
		<defs>
			<clipPath id="clip0_7_16">
				<rect width="71" height="71" fill="white" transform="translate(0.479736)"></rect>
			</clipPath>
		</defs>
	</symbol>
	<symbol fill="none" xmlns="http://www.w3.org/2000/svg" viewBox="0 0 71 41" id="phone-landscape">
		<g clip-path="url(#clip0_7_9)">
			<rect x="4.26086" y="3.68649" width="61.9784" height="34.1676" fill="white"></rect>
			<path
				d="M1.19592 32.6429C1.19592 34.7267 2.0289 36.7252 3.51161 38.1987C4.99432 39.6722 7.00531 40.5 9.10217 40.5L62.2897 40.5C64.3865 40.5 66.3975 39.6722 67.8802 38.1987C69.3629 36.7252 70.1959 34.7267 70.1959 32.6429L70.1959 8.35715C70.1959 6.27331 69.3629 4.27481 67.8802 2.80131C66.3975 1.32781 64.3865 0.500009 62.2897 0.500009L9.10217 0.500011C7.0053 0.500011 4.99432 1.32782 3.51161 2.80132C2.0289 4.27482 1.19592 6.27331 1.19592 8.35715L1.19592 32.6429ZM9.10217 36.2143C7.11842 36.2143 5.50842 34.6143 5.50842 32.6429L5.50842 8.35715C5.50842 6.38573 7.11842 4.78572 9.10217 4.78572L62.2897 4.78572C64.2734 4.78572 65.8834 6.38572 65.8834 8.35715L65.8834 32.6429C65.8834 34.6143 64.2734 36.2143 62.2897 36.2143L9.10217 36.2143ZM55.8209 25.5C55.8209 26.0683 56.0481 26.6134 56.4525 27.0152C56.8568 27.4171 57.4053 27.6429 57.9772 27.6429C58.549 27.6429 59.0975 27.4171 59.5019 27.0152C59.9062 26.6134 60.1334 26.0683 60.1334 25.5L60.1334 15.5C60.1334 14.9317 59.9062 14.3866 59.5019 13.9848C59.0975 13.5829 58.549 13.3571 57.9772 13.3571C57.4053 13.3571 56.8568 13.5829 56.4525 13.9848C56.0481 14.3866 55.8209 14.9317 55.8209 15.5L55.8209 25.5Z"
				fill="currentColor"></path>
		</g>
		<defs>
			<clipPath id="clip0_7_9">
				<rect width="40" height="70" fill="white" transform="translate(0.520264 40.5) rotate(-90)"></rect>
			</clipPath>
		</defs>
	</symbol>
	<symbol fill="none" xmlns="http://www.w3.org/2000/svg" viewBox="0 0 41 71" id="phone-portrait">
		<g clip-path="url(#clip0_3_2884)">
			<rect x="37.5229" y="4.24055" width="61.9784" height="34.1676" transform="rotate(90 37.5229 4.24055)"
				fill="white"></rect>
			<path
				d="M8.56661 1.17566C6.48277 1.17566 4.48427 2.00864 3.01077 3.49135C1.53727 4.97406 0.70947 6.98504 0.70947 9.08191L0.70947 62.2694C0.70947 64.3663 1.53727 66.3773 3.01077 67.86C4.48427 69.3427 6.48277 70.1757 8.56661 70.1757H32.8523C34.9362 70.1757 36.9347 69.3427 38.4082 67.86C39.8817 66.3773 40.7095 64.3663 40.7095 62.2694L40.7095 9.08191C40.7095 6.98504 39.8817 4.97406 38.4082 3.49135C36.9347 2.00864 34.9362 1.17566 32.8523 1.17566L8.56661 1.17566ZM4.99518 9.08191C4.99518 7.09816 6.59518 5.48816 8.56661 5.48816L32.8523 5.48816C34.8238 5.48816 36.4238 7.09816 36.4238 9.08191L36.4238 62.2694C36.4238 64.2532 34.8238 65.8632 32.8523 65.8632H8.56661C6.59518 65.8632 4.99518 64.2532 4.99518 62.2694L4.99518 9.08191ZM15.7095 55.8007C15.1411 55.8007 14.5961 56.0278 14.1942 56.4322C13.7924 56.8366 13.5666 57.385 13.5666 57.9569C13.5666 58.5288 13.7924 59.0772 14.1942 59.4816C14.5961 59.886 15.1411 60.1132 15.7095 60.1132L25.7095 60.1132C26.2778 60.1132 26.8228 59.886 27.2247 59.4816C27.6266 59.0772 27.8523 58.5288 27.8523 57.9569C27.8523 57.385 27.6266 56.8366 27.2247 56.4322C26.8228 56.0278 26.2778 55.8007 25.7095 55.8007L15.7095 55.8007Z"
				fill="currentColor"></path>
		</g>
		<defs>
			<clipPath id="clip0_3_2884">
				<rect width="40" height="70" fill="white" transform="translate(0.709473 0.5)"></rect>
			</clipPath>
		</defs>
	</symbol>
	<symbol fill="none" xmlns="http://www.w3.org/2000/svg" viewBox="0 0 70 61" id="tablet-landscape">
		<rect x="4.07166" y="5.49763" width="62.773" height="50.0595" fill="white"></rect>
		<path
			d="M27.6452 42.5182C26.9867 42.5182 26.3551 42.8348 25.8894 43.3983C25.4237 43.9617 25.1621 44.7259 25.1621 45.5228C25.1621 46.3197 25.4237 47.0839 25.8894 47.6474C26.3551 48.2108 26.9867 48.5274 27.6452 48.5274H42.5439C43.2025 48.5274 43.834 48.2108 44.2997 47.6474C44.7654 47.0839 45.027 46.3197 45.027 45.5228C45.027 44.7259 44.7654 43.9617 44.2997 43.3983C43.834 42.8348 43.2025 42.5182 42.5439 42.5182H27.6452ZM9.02193 0.454391C6.71697 0.454391 4.50641 1.56232 2.87655 3.53445C1.2467 5.50657 0.331055 8.18135 0.331055 10.9704V50.0296C0.331055 55.8345 4.22457 60.5456 9.02193 60.5456H61.1672C63.4722 60.5456 65.6827 59.4377 67.3126 57.4656C68.9424 55.4934 69.8581 52.8187 69.8581 50.0296V10.9704C69.8581 8.18135 68.9424 5.50657 67.3126 3.53445C65.6827 1.56232 63.4722 0.454391 61.1672 0.454391H9.02193ZM5.29727 10.9704C5.29727 9.77507 5.68969 8.62873 6.3882 7.78354C7.08671 6.93834 8.03409 6.46351 9.02193 6.46351H61.1672C62.155 6.46351 63.1024 6.93834 63.8009 7.78354C64.4994 8.62873 64.8919 9.77507 64.8919 10.9704V50.0296C64.8919 51.2249 64.4994 52.3713 63.8009 53.2165C63.1024 54.0617 62.155 54.5365 61.1672 54.5365H9.02193C8.03409 54.5365 7.08671 54.0617 6.3882 53.2165C5.68969 52.3713 5.29727 51.2249 5.29727 50.0296V10.9704Z"
			fill="currentColor"></path>
	</symbol>
	<symbol fill="none" xmlns="http://www.w3.org/2000/svg" viewBox="0 0 61 69" id="tablet-portrait">
		<g clip-path="url(#clip0_7_6)">
			<rect x="5.71216" y="65.2594" width="62.773" height="50.0595" transform="rotate(-90 5.71216 65.2594)"
				fill="white"></rect>
			<path
				d="M42.7601 41.7196C42.7601 42.3781 43.0767 43.0097 43.6402 43.4754C44.2036 43.9411 44.9678 44.2027 45.7647 44.2027C46.5616 44.2027 47.3258 43.9411 47.8893 43.4754C48.4527 43.0097 48.7693 42.3781 48.7693 41.7196L48.7693 26.8209C48.7693 26.1624 48.4527 25.5308 47.8893 25.0651C47.3258 24.5994 46.5616 24.3378 45.7647 24.3378C44.9678 24.3378 44.2036 24.5994 43.6402 25.0651C43.0767 25.5308 42.7601 26.1624 42.7601 26.8209L42.7601 41.7196ZM0.696289 60.3429C0.696289 62.6479 1.80422 64.8584 3.77634 66.4883C5.74847 68.1181 8.42325 69.0338 11.2123 69.0338L50.2715 69.0338C56.0764 69.0338 60.7875 65.1403 60.7875 60.3429L60.7875 8.19763C60.7875 5.89266 59.6796 3.6821 57.7075 2.05224C55.7353 0.422389 53.0606 -0.493253 50.2715 -0.493253L11.2123 -0.493254C8.42325 -0.493254 5.74847 0.422388 3.77634 2.05224C1.80422 3.6821 0.69629 5.89266 0.69629 8.19762L0.696289 60.3429ZM11.2123 64.0676C10.017 64.0676 8.87063 63.6751 8.02543 62.9766C7.18024 62.2781 6.70541 61.3307 6.70541 60.3429L6.70541 8.19762C6.70541 7.20978 7.18024 6.2624 8.02543 5.56389C8.87063 4.86538 10.017 4.47296 11.2123 4.47296L50.2715 4.47296C51.4668 4.47296 52.6132 4.86538 53.4584 5.56389C54.3036 6.2624 54.7784 7.20978 54.7784 8.19763L54.7784 60.3429C54.7784 61.3307 54.3036 62.2781 53.4584 62.9766C52.6132 63.6751 51.4668 64.0676 50.2715 64.0676L11.2123 64.0676Z"
				fill="currentColor"></path>
		</g>
		<defs>
			<clipPath id="clip0_7_6">
				<rect width="69" height="60" fill="white" transform="translate(0.668945 69) rotate(-90)"></rect>
			</clipPath>
		</defs>
	</symbol>
</svg>