<svg width="72" height="71" viewBox="0 0 72 71" fill="none" xmlns="http://www.w3.org/2000/svg">
	<g clip-path="url(#clip0_7_16)">
		<rect x="8" y="16" width="57" height="45" fill="white" />
		<path fill-rule="evenodd" clip-rule="evenodd"
			d="M9.9464 20.1167C9.9464 19.8028 10.0711 19.5018 10.293 19.2799C10.5149 19.058 10.8159 18.9333 11.1297 18.9333H60.8297C61.1436 18.9333 61.4446 19.058 61.6665 19.2799C61.8884 19.5018 62.0131 19.8028 62.0131 20.1167V54.4333H9.9464V20.1167ZM11.1297 14.2C7.86374 14.2 5.21307 16.8507 5.21307 20.1167V56.8H0.479736V59.1667C0.479736 59.7943 0.729081 60.3963 1.17292 60.8402C1.61675 61.284 2.21872 61.5333 2.8464 61.5333H69.1131C69.7407 61.5333 70.3427 61.284 70.7866 60.8402C71.2304 60.3963 71.4797 59.7943 71.4797 59.1667V56.8H66.7464V20.1167C66.7464 16.8507 64.0957 14.2 60.8297 14.2H11.1297Z"
			fill="currentColor" />
	</g>
	<defs>
		<clipPath id="clip0_7_16">
			<rect width="71" height="71" fill="white" transform="translate(0.479736)" />
		</clipPath>
	</defs>
</svg>