<svg width="41" height="71" viewBox="0 0 41 71" fill="none" xmlns="http://www.w3.org/2000/svg">
	<g clip-path="url(#clip0_3_2884)">
		<rect x="37.5229" y="4.24055" width="61.9784" height="34.1676" transform="rotate(90 37.5229 4.24055)"
			fill="white" />
		<path
			d="M8.56661 1.17566C6.48277 1.17566 4.48427 2.00864 3.01077 3.49135C1.53727 4.97406 0.70947 6.98504 0.70947 9.08191L0.70947 62.2694C0.70947 64.3663 1.53727 66.3773 3.01077 67.86C4.48427 69.3427 6.48277 70.1757 8.56661 70.1757H32.8523C34.9362 70.1757 36.9347 69.3427 38.4082 67.86C39.8817 66.3773 40.7095 64.3663 40.7095 62.2694L40.7095 9.08191C40.7095 6.98504 39.8817 4.97406 38.4082 3.49135C36.9347 2.00864 34.9362 1.17566 32.8523 1.17566L8.56661 1.17566ZM4.99518 9.08191C4.99518 7.09816 6.59518 5.48816 8.56661 5.48816L32.8523 5.48816C34.8238 5.48816 36.4238 7.09816 36.4238 9.08191L36.4238 62.2694C36.4238 64.2532 34.8238 65.8632 32.8523 65.8632H8.56661C6.59518 65.8632 4.99518 64.2532 4.99518 62.2694L4.99518 9.08191ZM15.7095 55.8007C15.1411 55.8007 14.5961 56.0278 14.1942 56.4322C13.7924 56.8366 13.5666 57.385 13.5666 57.9569C13.5666 58.5288 13.7924 59.0772 14.1942 59.4816C14.5961 59.886 15.1411 60.1132 15.7095 60.1132L25.7095 60.1132C26.2778 60.1132 26.8228 59.886 27.2247 59.4816C27.6266 59.0772 27.8523 58.5288 27.8523 57.9569C27.8523 57.385 27.6266 56.8366 27.2247 56.4322C26.8228 56.0278 26.2778 55.8007 25.7095 55.8007L15.7095 55.8007Z"
			fill="currentColor" />
	</g>
	<defs>
		<clipPath id="clip0_3_2884">
			<rect width="40" height="70" fill="white" transform="translate(0.709473 0.5)" />
		</clipPath>
	</defs>
</svg>