<svg width="71" height="41" viewBox="0 0 71 41" fill="none" xmlns="http://www.w3.org/2000/svg">
	<g clip-path="url(#clip0_7_9)">
		<rect x="4.26086" y="3.68649" width="61.9784" height="34.1676" fill="white" />
		<path
			d="M1.19592 32.6429C1.19592 34.7267 2.0289 36.7252 3.51161 38.1987C4.99432 39.6722 7.00531 40.5 9.10217 40.5L62.2897 40.5C64.3865 40.5 66.3975 39.6722 67.8802 38.1987C69.3629 36.7252 70.1959 34.7267 70.1959 32.6429L70.1959 8.35715C70.1959 6.27331 69.3629 4.27481 67.8802 2.80131C66.3975 1.32781 64.3865 0.500009 62.2897 0.500009L9.10217 0.500011C7.0053 0.500011 4.99432 1.32782 3.51161 2.80132C2.0289 4.27482 1.19592 6.27331 1.19592 8.35715L1.19592 32.6429ZM9.10217 36.2143C7.11842 36.2143 5.50842 34.6143 5.50842 32.6429L5.50842 8.35715C5.50842 6.38573 7.11842 4.78572 9.10217 4.78572L62.2897 4.78572C64.2734 4.78572 65.8834 6.38572 65.8834 8.35715L65.8834 32.6429C65.8834 34.6143 64.2734 36.2143 62.2897 36.2143L9.10217 36.2143ZM55.8209 25.5C55.8209 26.0683 56.0481 26.6134 56.4525 27.0152C56.8568 27.4171 57.4053 27.6429 57.9772 27.6429C58.549 27.6429 59.0975 27.4171 59.5019 27.0152C59.9062 26.6134 60.1334 26.0683 60.1334 25.5L60.1334 15.5C60.1334 14.9317 59.9062 14.3866 59.5019 13.9848C59.0975 13.5829 58.549 13.3571 57.9772 13.3571C57.4053 13.3571 56.8568 13.5829 56.4525 13.9848C56.0481 14.3866 55.8209 14.9317 55.8209 15.5L55.8209 25.5Z"
			fill="currentColor" />
	</g>
	<defs>
		<clipPath id="clip0_7_9">
			<rect width="40" height="70" fill="white" transform="translate(0.520264 40.5) rotate(-90)" />
		</clipPath>
	</defs>
</svg>