<svg width="61" height="69" viewBox="0 0 61 69" fill="none" xmlns="http://www.w3.org/2000/svg">
	<g clip-path="url(#clip0_7_6)">
		<rect x="5.71216" y="65.2594" width="62.773" height="50.0595" transform="rotate(-90 5.71216 65.2594)"
			fill="white" />
		<path
			d="M42.7601 41.7196C42.7601 42.3781 43.0767 43.0097 43.6402 43.4754C44.2036 43.9411 44.9678 44.2027 45.7647 44.2027C46.5616 44.2027 47.3258 43.9411 47.8893 43.4754C48.4527 43.0097 48.7693 42.3781 48.7693 41.7196L48.7693 26.8209C48.7693 26.1624 48.4527 25.5308 47.8893 25.0651C47.3258 24.5994 46.5616 24.3378 45.7647 24.3378C44.9678 24.3378 44.2036 24.5994 43.6402 25.0651C43.0767 25.5308 42.7601 26.1624 42.7601 26.8209L42.7601 41.7196ZM0.696289 60.3429C0.696289 62.6479 1.80422 64.8584 3.77634 66.4883C5.74847 68.1181 8.42325 69.0338 11.2123 69.0338L50.2715 69.0338C56.0764 69.0338 60.7875 65.1403 60.7875 60.3429L60.7875 8.19763C60.7875 5.89266 59.6796 3.6821 57.7075 2.05224C55.7353 0.422389 53.0606 -0.493253 50.2715 -0.493253L11.2123 -0.493254C8.42325 -0.493254 5.74847 0.422388 3.77634 2.05224C1.80422 3.6821 0.69629 5.89266 0.69629 8.19762L0.696289 60.3429ZM11.2123 64.0676C10.017 64.0676 8.87063 63.6751 8.02543 62.9766C7.18024 62.2781 6.70541 61.3307 6.70541 60.3429L6.70541 8.19762C6.70541 7.20978 7.18024 6.2624 8.02543 5.56389C8.87063 4.86538 10.017 4.47296 11.2123 4.47296L50.2715 4.47296C51.4668 4.47296 52.6132 4.86538 53.4584 5.56389C54.3036 6.2624 54.7784 7.20978 54.7784 8.19763L54.7784 60.3429C54.7784 61.3307 54.3036 62.2781 53.4584 62.9766C52.6132 63.6751 51.4668 64.0676 50.2715 64.0676L11.2123 64.0676Z"
			fill="currentColor" />
	</g>
	<defs>
		<clipPath id="clip0_7_6">
			<rect width="69" height="60" fill="white" transform="translate(0.668945 69) rotate(-90)" />
		</clipPath>
	</defs>
</svg>