<svg width="70" height="61" viewBox="0 0 70 61" fill="none" xmlns="http://www.w3.org/2000/svg">
	<rect x="4.07166" y="5.49763" width="62.773" height="50.0595" fill="white" />
	<path
		d="M27.6452 42.5182C26.9867 42.5182 26.3551 42.8348 25.8894 43.3983C25.4237 43.9617 25.1621 44.7259 25.1621 45.5228C25.1621 46.3197 25.4237 47.0839 25.8894 47.6474C26.3551 48.2108 26.9867 48.5274 27.6452 48.5274H42.5439C43.2025 48.5274 43.834 48.2108 44.2997 47.6474C44.7654 47.0839 45.027 46.3197 45.027 45.5228C45.027 44.7259 44.7654 43.9617 44.2997 43.3983C43.834 42.8348 43.2025 42.5182 42.5439 42.5182H27.6452ZM9.02193 0.454391C6.71697 0.454391 4.50641 1.56232 2.87655 3.53445C1.2467 5.50657 0.331055 8.18135 0.331055 10.9704V50.0296C0.331055 55.8345 4.22457 60.5456 9.02193 60.5456H61.1672C63.4722 60.5456 65.6827 59.4377 67.3126 57.4656C68.9424 55.4934 69.8581 52.8187 69.8581 50.0296V10.9704C69.8581 8.18135 68.9424 5.50657 67.3126 3.53445C65.6827 1.56232 63.4722 0.454391 61.1672 0.454391H9.02193ZM5.29727 10.9704C5.29727 9.77507 5.68969 8.62873 6.3882 7.78354C7.08671 6.93834 8.03409 6.46351 9.02193 6.46351H61.1672C62.155 6.46351 63.1024 6.93834 63.8009 7.78354C64.4994 8.62873 64.8919 9.77507 64.8919 10.9704V50.0296C64.8919 51.2249 64.4994 52.3713 63.8009 53.2165C63.1024 54.0617 62.155 54.5365 61.1672 54.5365H9.02193C8.03409 54.5365 7.08671 54.0617 6.3882 53.2165C5.68969 52.3713 5.29727 51.2249 5.29727 50.0296V10.9704Z"
		fill="currentColor" />
</svg>